<?xml version="1.0" encoding="utf-8"?>
<!-- Generator: Adobe Illustrator 19.0.0, SVG Export Plug-In . SVG Version: 6.00 Build 0)  -->
<svg version="1.1" xmlns="http://www.w3.org/2000/svg" xmlns:xlink="http://www.w3.org/1999/xlink" x="0px" y="0px"
	 viewBox="0 0 1000 500" style="enable-background:new 0 0 1000 500;" xml:space="preserve">
<style type="text/css">
	.st0{fill:#595959;}
	.st1{fill:#F39C12;}
</style>
<g id="label">
	<g>
		<path d="M227.7057495,259.4674683c4.5977631-0.8170471,9.7069397-1.4563599,15.3275757-1.9158325
			c5.6185455-0.4604797,11.2402191-0.6902161,16.8608398-0.6902161c5.7225037,0,11.4969788,0.4365845,17.3213501,1.3035278
			c5.8243713,0.8690491,11.0603638,2.605011,15.7111511,5.2110596c4.6486816,2.6060791,8.4543152,6.2339478,11.4200439,10.8826294
			c2.9625854,4.651825,4.4449463,10.8067627,4.4449463,18.4710388c0,6.7443542-1.278595,12.4928284-3.8326721,17.2444458
			c-2.5551147,4.7515869-5.9532776,8.61026-10.1923828,11.5728455c-4.2422485,2.9646912-9.0707703,5.1341248-14.4855652,6.5146179
			c-5.4179382,1.379425-10.9855347,2.0686035-16.7080383,2.0686035c-0.5124817,0-1.379425,0-2.605011,0
			c-1.2266235,0-2.5291443-0.0238953-3.9096069-0.0769043c-1.379425-0.0498962-2.6819305-0.1268311-3.9085541-0.2297363
			c-1.2255859-0.0997925-2.1455383-0.2037354-2.7588501-0.3066711v36.1749268h-22.6852264V259.4674683z M261.4274292,276.7888184
			c-2.1455383,0-4.21521,0.0519714-6.2079315,0.1528015c-1.9927521,0.1029053-3.6018982,0.3066406-4.8285217,0.6133118v31.882782
			c0.407486,0.1029358,1.0727692,0.2058411,1.9927368,0.3066711c0.9199677,0.1029053,1.8898315,0.1788025,2.9127045,0.2297363
			c1.0197449,0.0519714,1.9656982,0.1029053,2.8357849,0.1528015c0.8669434,0.053009,1.5561523,0.0769043,2.068634,0.0769043
			c2.9625854,0,5.9252014-0.2037354,8.8908997-0.6132812c2.962616-0.4075012,5.594635-1.2765198,7.894043-2.6060791
			c2.299408-1.3263855,4.1622009-3.1413879,5.594635-5.4407654c1.4293213-2.299408,2.1455688-5.3888245,2.1455688-9.273468
			c0-3.2692566-0.6653137-5.9013062-1.9927673-7.894043c-1.3284912-1.9927368-3.0914917-3.5499268-5.2879639-4.6757202
			c-2.1985779-1.1226501-4.7017212-1.8898315-7.5104675-2.2993774
			C267.1229248,276.9946289,264.2871399,276.7888184,261.4274292,276.7888184z"/>
		<path d="M386.6602478,358.3341675c-3.4761047,2.6590576-8.2006836,4.931427-14.178894,6.8212585
			s-12.3919983,2.8357849-19.2371521,2.8357849c-13.7953491,0-23.9118347-3.7796631-30.3495178-11.3431396
			c-6.4376831-7.5613708-9.6570435-17.9335938-9.6570435-31.1156311c0-13.999054,3.6257935-24.6020508,10.883667-31.8069153
			c7.2536926-7.2037964,17.4741516-10.8056946,30.6561584-10.8056946c4.2911072,0,8.53125,0.5364075,12.7225647,1.6091614
			c4.1881714,1.0727844,7.9179382,2.8617859,11.18927,5.3649292c3.2692566,2.505188,5.9013062,5.8773804,7.894043,10.1164856
			c1.9927368,4.2412109,2.9885864,9.4792786,2.9885864,15.7111511c0,2.1465759-0.1289062,4.4979553-0.3825378,7.0509949
			c-0.2567749,2.5561523-0.6902466,5.2120972-1.3035583,7.9709473H334.237793
			c0.5093689,6.9501648,2.5291443,12.0853577,6.0541077,15.4045105c3.5260315,3.3222656,9.273468,4.9823608,17.2444153,4.9823608
			c4.8015137,0,9.1206665-0.6902466,12.952301-2.0696716s6.7682495-2.7827759,8.8139954-4.21521L386.6602478,358.3341675z
			 M354.4708252,299.7806702c-6.3378906,0-11.0364685,1.7120972-14.1019897,5.1351929
			c-3.0655212,3.4241333-4.8545227,7.7931824-5.3649292,13.1051025h34.6416626
			c0.4075012-5.6185608-0.6133118-10.0635071-3.0655212-13.3348389
			C364.1278687,301.4168701,360.0893555,299.7806702,354.4708252,299.7806702z"/>
		<path d="M408.8849792,365.691803v-80.4725647h21.4596252v61.4651489h23.9118347v-61.4651489h21.4596252v61.4651489h23.9118347
			v-61.4651489h21.4596252v80.4725647H408.8849792z"/>
		<path d="M611.9822388,358.3341675c-3.4761353,2.6590576-8.2006836,4.931427-14.178894,6.8212585
			s-12.3919678,2.8357849-19.2371826,2.8357849c-13.7952881,0-23.9118042-3.7796631-30.3494873-11.3431396
			c-6.4376831-7.5613708-9.6570435-17.9335938-9.6570435-31.1156311c0-13.999054,3.6257935-24.6020508,10.883667-31.8069153
			c7.2536621-7.2037964,17.4741211-10.8056946,30.6561279-10.8056946c4.2911377,0,8.531311,0.5364075,12.7225952,1.6091614
			c4.1881714,1.0727844,7.9179077,2.8617859,11.18927,5.3649292c3.2692261,2.505188,5.9013062,5.8773804,7.894043,10.1164856
			c1.9927368,4.2412109,2.9885864,9.4792786,2.9885864,15.7111511c0,2.1465759-0.1289062,4.4979553-0.3825684,7.0509949
			c-0.2567139,2.5561523-0.6901855,5.2120972-1.3035278,7.9709473h-53.6480103
			c0.5093384,6.9501648,2.5291138,12.0853577,6.0540771,15.4045105c3.526001,3.3222656,9.2734375,4.9823608,17.2444458,4.9823608
			c4.8014526,0,9.1206055-0.6902466,12.9522705-2.0696716c3.831604-1.379425,6.7682495-2.7827759,8.8139648-4.21521
			L611.9822388,358.3341675z M579.7927856,299.7806702c-6.3378906,0-11.036438,1.7120972-14.1019897,5.1351929
			c-3.0654907,3.4241333-4.8544922,7.7931824-5.3648682,13.1051025h34.6416016
			c0.4075317-5.6185608-0.6132812-10.0635071-3.0654907-13.3348389
			C589.4498291,301.4168701,585.411377,299.7806702,579.7927856,299.7806702z"/>
		<path d="M686.1689453,334.5751343h-30.5023804v31.1166687h-21.4595947v-80.4725647h21.4595947v29.8900452h30.5023804v-29.8900452
			H707.62854v80.4725647h-21.4595947V334.5751343z"/>
		<path d="M783.0418701,329.3640747l0.9188843-13.6425171l-9.6560059,13.488678l-31.7299805,36.4815674h-12.8753662v-80.4725647
			h21.4596558v37.8599548l-0.7671509,11.036499h1.8399048c1.2266235-1.7359924,2.4761353-3.5759277,3.7557373-5.5177307
			c1.2765503-1.9407654,2.5291748-3.7796631,3.7546997-5.5187683l31.8828125-37.8599548h12.8753662v80.4725647h-21.4585571
			V329.3640747z"/>
		<path d="M895.3961792,358.3341675c-3.4761353,2.6590576-8.2006836,4.931427-14.178894,6.8212585
			s-12.3920288,2.8357849-19.2371826,2.8357849c-13.7953491,0-23.9118042-3.7796631-30.3494873-11.3431396
			c-6.4376831-7.5613708-9.6570435-17.9335938-9.6570435-31.1156311c0-13.999054,3.6257935-24.6020508,10.883667-31.8069153
			c7.2536621-7.2037964,17.4741211-10.8056946,30.6561279-10.8056946c4.2911377,0,8.53125,0.5364075,12.7225952,1.6091614
			c4.1881714,1.0727844,7.9179077,2.8617859,11.18927,5.3649292c3.2692261,2.505188,5.9013062,5.8773804,7.894043,10.1164856
			c1.9927368,4.2412109,2.9885864,9.4792786,2.9885864,15.7111511c0,2.1465759-0.1289062,4.4979553-0.3825684,7.0509949
			c-0.2567749,2.5561523-0.6902466,5.2120972-1.3035278,7.9709473h-53.6480713
			c0.5093994,6.9501648,2.5291748,12.0853577,6.0541382,15.4045105c3.526001,3.3222656,9.2734375,4.9823608,17.2443848,4.9823608
			c4.8015137,0,9.1206665-0.6902466,12.9523315-2.0696716c3.831604-1.379425,6.7682495-2.7827759,8.8139648-4.21521
			L895.3961792,358.3341675z M863.2067261,299.7806702c-6.3378906,0-11.036438,1.7120972-14.1019897,5.1351929
			c-3.0654907,3.4241333-4.8544922,7.7931824-5.3649292,13.1051025h34.6416626
			c0.4075317-5.6185608-0.6132812-10.0635071-3.0654907-13.3348389
			C872.8637695,301.4168701,868.8252563,299.7806702,863.2067261,299.7806702z"/>
		<path d="M913.635437,355.2686462c0-3.7796631,1.2266235-6.7443237,3.678772-8.8898621
			c2.4522095-2.1466064,5.6715698-3.2193604,9.6570435-3.2193604c4.0853271,0,7.357666,1.0727539,9.8098755,3.2193604
			c2.4522095,2.1455383,3.678833,5.110199,3.678833,8.8898621c0,3.5780029-1.2266235,6.4906921-3.678833,8.7370911
			c-2.4522095,2.2463684-5.7245483,3.3721619-9.8098755,3.3721619c-3.9854736,0-7.204834-1.1257935-9.6570435-3.3721619
			C914.8620605,361.7593384,913.635437,358.8466492,913.635437,355.2686462z"/>
	</g>
	<g>
		<path class="st0" d="M358.2983398,412.7858276l0.3837891-4.2719727h-0.2402344l-2.4482422,4.3198242l-13.7753906,18.4799805
			h-5.2802734V397.713562h7.1035156v18.0961914l-0.4794922,4.4638672h0.2880859l2.5917969-4.4638672l13.6318359-18.0961914h5.328125
			v33.6000977h-7.1035156V412.7858276z"/>
		<path class="st0" d="M388.2485352,421.569519h-9.5517578v9.7441406h-6.7197266v-25.2001953h6.7197266v9.3603516h9.5517578
			v-9.3603516h6.7207031v25.2001953h-6.7207031V421.569519z"/>
		<path class="st0" d="M421.4643555,412.0656128h-7.8242188v19.2480469h-7.0078125v-19.2480469h-7.8242188v-5.9521484h22.65625
			V412.0656128z"/>
		<path class="st0" d="M446.4243164,429.0094604c-1.0878906,0.8325195-2.5673828,1.5444336-4.4394531,2.1362305
			s-3.8808594,0.8881836-6.0244141,0.8881836c-4.3203125,0-7.4882812-1.1835938-9.5039062-3.5522461
			c-2.015625-2.3676758-3.0244141-5.6162109-3.0244141-9.7441406c0-4.3837891,1.1357422-7.7036133,3.4082031-9.9599609
			c2.2714844-2.2558594,5.4726562-3.3837891,9.6005859-3.3837891c1.34375,0,2.6708984,0.1679688,3.9833984,0.5039062
			c1.3115234,0.3359375,2.4794922,0.8964844,3.5039062,1.6801758c1.0244141,0.7841797,1.8486328,1.840332,2.4726562,3.1679688
			c0.6240234,1.328125,0.9355469,2.9682617,0.9355469,4.9199219c0,0.671875-0.0400391,1.4086914-0.1201172,2.2080078
			c-0.0800781,0.800293-0.2158203,1.6318359-0.4082031,2.4960938h-16.7998047
			c0.1601562,2.1762695,0.7919922,3.7841797,1.8964844,4.8237305c1.1035156,1.0405273,2.9033203,1.5600586,5.3994141,1.5600586
			c1.5039062,0,2.8564453-0.2158203,4.0566406-0.6479492c1.1992188-0.4321289,2.1191406-0.871582,2.7597656-1.3198242
			L446.4243164,429.0094604z M436.3442383,410.6735229c-1.984375,0-3.4560547,0.5366211-4.4160156,1.6079102
			c-0.9599609,1.0727539-1.5195312,2.440918-1.6796875,4.1040039h10.8476562
			c0.1279297-1.7592773-0.1914062-3.1513672-0.9599609-4.1757812
			C439.3686523,411.18573,438.1040039,410.6735229,436.3442383,410.6735229z"/>
		<path class="st0" d="M453.3842773,406.1134644h4.7998047l0.8164062,3.1201172h0.5761719
			c0.9912109-1.2792969,2.1425781-2.2392578,3.4550781-2.8798828c1.3125-0.6396484,2.8486328-0.9599609,4.6083984-0.9599609
			c3.3916016,0,5.9355469,1.0161133,7.6318359,3.0478516c1.6962891,2.0327148,2.5439453,5.2558594,2.5439453,9.671875
			c0,2.1123047-0.2714844,4.0249023-0.8154297,5.7363281c-0.5449219,1.7119141-1.3447266,3.1845703-2.4003906,4.4160156
			c-1.0556641,1.2319336-2.3603516,2.1762695-3.9121094,2.8320312c-1.5527344,0.6552734-3.3359375,0.9838867-5.3515625,0.9838867
			c-1.0888672,0-2.0322266-0.1044922-2.8320312-0.3120117c-0.8007812-0.2084961-1.6005859-0.487793-2.4003906-0.8398438v9.9355469
			h-6.7197266V406.1134644z M465.5766602,411.0094604c-1.5361328,0-2.7207031,0.3442383-3.5527344,1.0322266
			c-0.8320312,0.6884766-1.4716797,1.7519531-1.9199219,3.1918945v9.7919922
			c0.5439453,0.4487305,1.1523438,0.800293,1.8242188,1.0561523c0.671875,0.2563477,1.5195312,0.3837891,2.5439453,0.3837891
			c2.1757812,0,3.7919922-0.6791992,4.8476562-2.0400391c1.0566406-1.359375,1.5839844-3.527832,1.5839844-6.5039062
			c0-2.1435547-0.4072266-3.831543-1.2236328-5.0639648C468.8637695,411.6261597,467.496582,411.0094604,465.5766602,411.0094604z"
			/>
		<path class="st0" d="M499.559082,421.569519h-9.5517578v9.7441406h-6.7197266v-25.2001953h6.7197266v9.3603516h9.5517578
			v-9.3603516h6.7202148v25.2001953h-6.7202148V421.569519z"/>
		<path class="st0" d="M534.7421875,429.0094604c-1.0878906,0.8325195-2.5673828,1.5444336-4.4394531,2.1362305
			s-3.8808594,0.8881836-6.0244141,0.8881836c-4.3203125,0-7.4882812-1.1835938-9.5039062-3.5522461
			c-2.015625-2.3676758-3.0244141-5.6162109-3.0244141-9.7441406c0-4.3837891,1.1357422-7.7036133,3.4082031-9.9599609
			c2.2714844-2.2558594,5.4726562-3.3837891,9.6005859-3.3837891c1.34375,0,2.6708984,0.1679688,3.9833984,0.5039062
			c1.3115234,0.3359375,2.4794922,0.8964844,3.5039062,1.6801758c1.0244141,0.7841797,1.8486328,1.840332,2.4726562,3.1679688
			c0.6240234,1.328125,0.9355469,2.9682617,0.9355469,4.9199219c0,0.671875-0.0400391,1.4086914-0.1201172,2.2080078
			c-0.0800781,0.800293-0.2158203,1.6318359-0.4082031,2.4960938h-16.7998047
			c0.1601562,2.1762695,0.7919922,3.7841797,1.8964844,4.8237305c1.1035156,1.0405273,2.9033203,1.5600586,5.3994141,1.5600586
			c1.5039062,0,2.8564453-0.2158203,4.0566406-0.6479492c1.1992188-0.4321289,2.1191406-0.871582,2.7597656-1.3198242
			L534.7421875,429.0094604z M524.6621094,410.6735229c-1.984375,0-3.4560547,0.5366211-4.4160156,1.6079102
			c-0.9599609,1.0727539-1.5195312,2.440918-1.6796875,4.1040039h10.8476562
			c0.1279297-1.7592773-0.1914062-3.1513672-0.9599609-4.1757812
			C527.6865234,411.18573,526.421875,410.6735229,524.6621094,410.6735229z"/>
		<path class="st0" d="M561.2861328,412.0656128h-7.8242188v19.2480469h-7.0078125v-19.2480469h-7.8242188v-5.9521484h22.65625
			V412.0656128z"/>
		<path class="st0" d="M562.9658203,414.513855h13.1035156v5.9516602h-13.1035156V414.513855z"/>
		<path class="st0" d="M582.1171875,407.8414917c1.4404297-0.6396484,3.2080078-1.1674805,5.3037109-1.5839844
			c2.0957031-0.4155273,4.2646484-0.6240234,6.5048828-0.6240234c1.7587891,0,3.2392578,0.2084961,4.4394531,0.6240234
			c1.2001953,0.4165039,2.1523438,1.0166016,2.8564453,1.800293c0.703125,0.7841797,1.2070312,1.7280273,1.5117188,2.8320312
			c0.3037109,1.1040039,0.4560547,2.3276367,0.4560547,3.671875c0,1.6318359-0.0644531,3.2480469-0.1923828,4.8481445
			s-0.1914062,3.2958984-0.1914062,5.0878906c0,1.2163086,0.0791016,2.3999023,0.2392578,3.5517578
			c0.1601562,1.1523438,0.4160156,2.2563477,0.7685547,3.3120117h-5.4716797l-1.1044922-3.7436523h-0.5761719
			c-0.8320312,1.1201172-1.8886719,2.0800781-3.1679688,2.8798828c-1.2802734,0.800293-2.9277344,1.199707-4.9433594,1.199707
			c-1.2167969,0-2.328125-0.1762695-3.3369141-0.527832c-1.0078125-0.3515625-1.8710938-0.8554688-2.5917969-1.5117188
			c-0.7197266-0.6557617-1.2802734-1.4321289-1.6796875-2.328125c-0.4003906-0.8955078-0.5996094-1.8720703-0.5996094-2.9282227
			c0-2.8476562,0.9511719-4.9995117,2.8554688-6.4560547c1.9033203-1.4555664,4.7919922-2.1835938,8.6640625-2.1835938
			c0.8955078,0,1.7919922,0.0717773,2.6884766,0.2158203c0.8955078,0.144043,1.5195312,0.2480469,1.8710938,0.3120117
			c0.0966797-0.671875,0.1445312-1.2480469,0.1445312-1.7280273c0-1.2158203-0.3046875-2.1118164-0.9121094-2.6879883
			c-0.6083984-0.5761719-1.7441406-0.8642578-3.4082031-0.8642578c-1.5361328,0-3.0322266,0.1845703-4.4873047,0.5522461
			c-1.4570312,0.3681641-2.7451172,0.8242188-3.8642578,1.3681641L582.1171875,407.8414917z M590.9013672,426.3214722
			c1.5039062,0,2.7041016-0.3515625,3.5996094-1.0556641c0.8955078-0.7036133,1.5517578-1.4399414,1.96875-2.2080078v-2.8803711
			c-0.1611328-0.0634766-0.4082031-0.1274414-0.7441406-0.1918945c-0.3359375-0.0634766-0.7041016-0.1274414-1.1044922-0.1918945
			c-0.4003906-0.0639648-0.7998047-0.1118164-1.2001953-0.144043c-0.4003906-0.03125-0.7597656-0.0478516-1.0791016-0.0478516
			c-1.7285156,0-3.0087891,0.3120117-3.8408203,0.9360352s-1.2480469,1.3999023-1.2480469,2.3276367
			c0,1.1523438,0.328125,2.0161133,0.984375,2.5922852C588.8925781,426.0338745,589.78125,426.3214722,590.9013672,426.3214722z"/>
		<path class="st0" d="M627.71875,412.0656128h-10.4648438v19.2480469h-7.1035156v-25.2001953H627.71875V412.0656128z"/>
		<path class="st0" d="M652.2939453,429.0094604c-1.0878906,0.8325195-2.5673828,1.5444336-4.4394531,2.1362305
			s-3.8808594,0.8881836-6.0244141,0.8881836c-4.3203125,0-7.4882812-1.1835938-9.5039062-3.5522461
			c-2.015625-2.3676758-3.0244141-5.6162109-3.0244141-9.7441406c0-4.3837891,1.1357422-7.7036133,3.4082031-9.9599609
			c2.2714844-2.2558594,5.4726562-3.3837891,9.6005859-3.3837891c1.34375,0,2.6708984,0.1679688,3.9833984,0.5039062
			c1.3115234,0.3359375,2.4794922,0.8964844,3.5039062,1.6801758c1.0244141,0.7841797,1.8486328,1.840332,2.4726562,3.1679688
			c0.6240234,1.328125,0.9355469,2.9682617,0.9355469,4.9199219c0,0.671875-0.0400391,1.4086914-0.1201172,2.2080078
			c-0.0800781,0.800293-0.2158203,1.6318359-0.4082031,2.4960938h-16.7998047
			c0.1601562,2.1762695,0.7919922,3.7841797,1.8964844,4.8237305c1.1035156,1.0405273,2.9033203,1.5600586,5.3994141,1.5600586
			c1.5039062,0,2.8564453-0.2158203,4.0566406-0.6479492c1.1992188-0.4321289,2.1191406-0.871582,2.7597656-1.3198242
			L652.2939453,429.0094604z M642.2138672,410.6735229c-1.984375,0-3.4560547,0.5366211-4.4160156,1.6079102
			c-0.9599609,1.0727539-1.5195312,2.440918-1.6796875,4.1040039h10.8476562
			c0.1279297-1.7592773-0.1914062-3.1513672-0.9599609-4.1757812
			C645.2382812,411.18573,643.9736328,410.6735229,642.2138672,410.6735229z"/>
		<path class="st0" d="M675.5253906,421.569519h-9.5517578v9.7441406h-6.7197266v-25.2001953h6.7197266v9.3603516h9.5517578
			v-9.3603516h6.7207031v25.2001953h-6.7207031V421.569519z"/>
		<path class="st0" d="M707.62854,412.0895386h-7.8242188v19.2480469h-7.0078125v-19.2480469H684.97229v-5.9521484h22.65625
			V412.0895386z"/>
		<path class="st0" d="M729.0209961,429.7775269c-1.0878906,0.7368164-2.3925781,1.2958984-3.9121094,1.6801758
			c-1.5195312,0.3837891-3.0957031,0.5761719-4.7275391,0.5761719c-2.1767578,0-4.0078125-0.3203125-5.4960938-0.9604492
			c-1.4882812-0.6396484-2.7050781-1.5517578-3.6484375-2.7358398c-0.9443359-1.1835938-1.6240234-2.5834961-2.0400391-4.199707
			c-0.4160156-1.6157227-0.6240234-3.4155273-0.6240234-5.4003906c0-4.1914062,1.0322266-7.4638672,3.0966797-9.815918
			c2.0634766-2.3520508,5.0634766-3.527832,9-3.527832c1.9199219,0,3.4951172,0.1523438,4.7275391,0.4560547
			c1.2314453,0.3041992,2.328125,0.6958008,3.2880859,1.1757812l-1.6318359,5.3759766
			c-0.8330078-0.3515625-1.65625-0.6157227-2.4716797-0.7919922c-0.8164062-0.175293-1.7685547-0.2636719-2.8564453-0.2636719
			c-2.015625,0-3.5605469,0.5839844-4.6318359,1.7519531c-1.0722656,1.168457-1.6083984,3.0478516-1.6083984,5.6396484
			c0,1.0249023,0.1279297,1.9765625,0.3837891,2.855957c0.2558594,0.8808594,0.65625,1.65625,1.2001953,2.328125
			s1.2314453,1.2001953,2.0644531,1.5839844c0.8320312,0.3842773,1.8076172,0.5761719,2.9277344,0.5761719
			c1.34375,0,2.4072266-0.1201172,3.1923828-0.3598633c0.7832031-0.2402344,1.5273438-0.5678711,2.2314453-0.984375
			L729.0209961,429.7775269z"/>
		<path class="st0" d="M753.2133789,412.0656128h-7.8242188v19.2480469h-7.0078125v-19.2480469h-7.8242188v-5.9521484h22.65625
			V412.0656128z"/>
		<path class="st0" d="M757.0532227,406.1134644c1.3115234-0.0957031,2.8476562-0.1918945,4.6083984-0.2875977
			c1.7587891-0.0961914,3.6953125-0.144043,5.8076172-0.144043c3.9677734,0,6.7832031,0.527832,8.4482422,1.5839844
			c1.6630859,1.0556641,2.4960938,2.6240234,2.4960938,4.7036133c0,1.1845703-0.3691406,2.3208008-1.1044922,3.4082031
			c-0.7363281,1.0883789-1.8886719,1.9042969-3.4560547,2.4482422v0.3837891
			c1.984375,0.4160156,3.4326172,1.1279297,4.34375,2.1362305c0.9121094,1.0078125,1.3681641,2.3120117,1.3681641,3.9116211
			c0,2.4960938-1.0556641,4.3681641-3.1679688,5.6162109c-2.1113281,1.2480469-5.4716797,1.8720703-10.0800781,1.8720703
			c-1.5039062,0-3.0957031-0.0405273-4.7753906-0.1201172c-1.6806641-0.0800781-3.1767578-0.1845703-4.4882812-0.3120117
			V406.1134644z M767.7094727,416.385437c1.2792969,0,2.3193359-0.2470703,3.1201172-0.7436523
			c0.7988281-0.4960938,1.1992188-1.144043,1.1992188-1.9443359c0-0.8637695-0.34375-1.5356445-1.03125-2.015625
			c-0.6884766-0.4799805-1.9287109-0.7202148-3.7207031-0.7202148c-0.640625,0-1.1679688,0.0166016-1.5839844,0.0478516
			c-0.4160156,0.0322266-0.7998047,0.0649414-1.1513672,0.0961914c-0.1289062,0-0.2880859,0.0083008-0.4804688,0.0239258
			c-0.1914062,0.0166016-0.3359375,0.0239258-0.4316406,0.0239258v5.2319336H767.7094727z M763.6293945,426.1774292
			c0.6396484,0.128418,1.1914062,0.2084961,1.65625,0.2402344c0.4628906,0.0322266,1.0146484,0.0478516,1.6552734,0.0478516
			c2.1757812,0,3.6884766-0.2636719,4.5361328-0.7919922c0.8476562-0.527832,1.2724609-1.2875977,1.2724609-2.2797852
			c0-0.8955078-0.3681641-1.6240234-1.1044922-2.184082c-0.7363281-0.5595703-2.0800781-0.8398438-4.0322266-0.8398438h-3.9833984
			V426.1774292z"/>
		<path class="st0" d="M783.309082,418.7374878c0-4.1591797,1.1044922-7.4233398,3.3125-9.7919922
			c2.2080078-2.3676758,5.359375-3.5517578,9.4560547-3.5517578c2.1435547,0,4.015625,0.3359375,5.6162109,1.0078125
			c1.5996094,0.671875,2.9277344,1.6079102,3.9833984,2.8081055c1.0566406,1.2001953,1.8486328,2.6083984,2.3759766,4.2241211
			c0.5283203,1.6162109,0.7919922,3.3837891,0.7919922,5.3037109c0,2.0483398-0.2880859,3.8964844-0.8632812,5.5439453
			c-0.5761719,1.6489258-1.4091797,3.0483398-2.4960938,4.2001953c-1.0888672,1.1518555-2.4248047,2.0327148-4.0087891,2.6401367
			s-3.3837891,0.9121094-5.3994141,0.9121094c-2.1767578,0-4.0644531-0.3364258-5.6640625-1.0083008
			c-1.6005859-0.671875-2.9277344-1.6079102-3.984375-2.8081055c-1.0556641-1.199707-1.8398438-2.6074219-2.3515625-4.2236328
			C783.5649414,422.3781128,783.309082,420.6261597,783.309082,418.7374878z M790.2211914,418.7374878
			c0,1.0561523,0.1123047,2.0483398,0.3359375,2.9760742c0.2236328,0.9287109,0.5683594,1.7363281,1.0322266,2.4243164
			c0.4638672,0.6884766,1.0634766,1.2402344,1.7998047,1.6557617c0.7363281,0.4165039,1.6318359,0.6240234,2.6884766,0.6240234
			c3.9033203,0,5.8554688-2.5595703,5.8554688-7.6801758c0-1.1196289-0.1035156-2.1513672-0.3115234-3.0957031
			c-0.2089844-0.9438477-0.5449219-1.7597656-1.0078125-2.4482422c-0.4648438-0.6875-1.0732422-1.2241211-1.8242188-1.6079102
			c-0.7519531-0.3837891-1.65625-0.5761719-2.7119141-0.5761719c-1.8242188,0-3.2568359,0.6083984-4.2958984,1.8242188
			C790.7407227,414.0499878,790.2211914,416.0182495,790.2211914,418.7374878z"/>
	</g>
</g>
<g id="symbol">
	<g>
		<path class="st1" d="M502.6666565,261.0289917h18.4208679v-15.556839c0-28.242981-22.8954163-51.1384888-51.1383972-51.1384888
			c-3.6359863,0-7.1809692,0.3858032-10.6022949,1.1072998c-3.7804565-36.4378662-34.5786743-64.850769-72.0164795-64.850769
			c-16.1808472,0-31.1196289,5.3106689-43.175415,14.279541c-13.5901489-47.3248901-57.1938477-81.9534302-108.888443-81.9534302
			c-62.5623779,0-113.2791748,50.7168617-113.2791748,113.2792358c0,12.7379761,2.1033936,24.984436,5.9802246,36.4122314
			c-38.9246216,3.6988525-69.3757324,36.4697876-69.3757324,76.3629608c0,42.3718872,34.3491783,76.7210693,76.7210693,76.7210693
			H191.75v-20.666687h-56.4371185c-30.9580078,0-56.0544434-25.0963745-56.0544434-56.0543823
			s24.8291245-56.2210846,57.3291321-58.2210846c1.812912-0.111557,10.5-1.1666565,19.2916565,0.0833435
			c-5.2158203-16.5289307-13.2252808-34.3235474-13.2252808-54.6374512c0-51.1484985,41.4640503-92.6125488,92.6125488-92.6125488
			s92.4006195,39.4773483,98.804184,93.8089447c10.0168762-11.9756165,31.3968201-28.3075409,53.2596741-28.3075409
			c29.7769775,0,56.2572021,22.7216187,56.2572021,52.4985962c0,5.5831909-0.833313,10.5-1.8424072,18.0093994
			c8.6757812-5.2883301,19.2178345-6.6621094,28.2039795-6.6621094c17.9723511,0,32.5418091,14.569519,32.5418091,32.5418701
			L502.6666565,261.0289917z"/>
	</g>
</g>
</svg>
