<svg xmlns="http://www.w3.org/2000/svg" viewBox="0 0 1000 500"><style>.st0{fill:#595959}.st1{fill:#f39c12}</style><g id="label"><path d="M227.706 259.467c4.598-.817 9.707-1.456 15.327-1.915 5.619-.46 11.24-.69 16.861-.69 5.723 0 11.497.436 17.322 1.303 5.824.869 11.06 2.605 15.71 5.211 4.65 2.606 8.455 6.234 11.42 10.883 2.963 4.651 4.446 10.806 4.446 18.47 0 6.745-1.279 12.494-3.833 17.245-2.555 4.752-5.953 8.61-10.192 11.573-4.243 2.965-9.071 5.134-14.486 6.515-5.418 1.379-10.985 2.068-16.708 2.068h-2.605c-1.227 0-2.53-.024-3.91-.077a82.516 82.516 0 0 1-3.908-.23c-1.226-.1-2.146-.203-2.759-.306v36.175h-22.685V259.467zm33.721 17.322c-2.145 0-4.215.052-6.208.153-1.992.103-3.601.306-4.828.613v31.883c.407.103 1.073.206 1.993.306.92.103 1.89.18 2.912.23 1.02.052 1.966.103 2.836.153.867.053 1.556.077 2.069.077a64.98 64.98 0 0 0 8.89-.613c2.963-.408 5.595-1.277 7.895-2.607 2.3-1.326 4.162-3.14 5.594-5.44 1.43-2.3 2.146-5.39 2.146-9.274 0-3.269-.665-5.901-1.993-7.894-1.328-1.993-3.091-3.55-5.288-4.676-2.198-1.122-4.701-1.89-7.51-2.299a59.39 59.39 0 0 0-8.508-.612zm125.233 81.545c-3.476 2.66-8.2 4.932-14.179 6.821s-12.392 2.836-19.237 2.836c-13.795 0-23.912-3.78-30.35-11.343-6.437-7.561-9.656-17.934-9.656-31.116 0-13.999 3.625-24.602 10.883-31.806 7.254-7.204 17.474-10.806 30.656-10.806 4.292 0 8.532.536 12.723 1.609 4.188 1.073 7.918 2.862 11.19 5.365 3.269 2.505 5.9 5.877 7.893 10.116 1.993 4.242 2.989 9.48 2.989 15.712 0 2.146-.129 4.498-.383 7.05a68.156 68.156 0 0 1-1.303 7.971h-53.648c.51 6.95 2.529 12.086 6.054 15.405 3.526 3.322 9.273 4.982 17.244 4.982 4.802 0 9.121-.69 12.953-2.07s6.768-2.782 8.814-4.215l7.357 13.49zm-32.19-58.553c-6.337 0-11.036 1.712-14.101 5.135-3.066 3.424-4.855 7.793-5.365 13.105h34.642c.407-5.619-.614-10.064-3.066-13.335-2.452-3.27-6.49-4.905-12.11-4.905zm54.415 65.911v-80.473h21.46v61.465h23.911V285.22h21.46v61.465h23.912V285.22h21.46v80.473H408.885zm203.097-7.358c-3.476 2.66-8.2 4.932-14.179 6.821s-12.392 2.836-19.237 2.836c-13.795 0-23.912-3.78-30.35-11.343-6.437-7.561-9.656-17.934-9.656-31.116 0-13.999 3.625-24.602 10.883-31.806 7.254-7.204 17.474-10.806 30.656-10.806 4.292 0 8.532.536 12.723 1.609 4.188 1.073 7.918 2.862 11.19 5.365 3.269 2.505 5.9 5.877 7.893 10.116 1.993 4.242 2.989 9.48 2.989 15.712 0 2.146-.129 4.498-.383 7.05a68.136 68.136 0 0 1-1.303 7.971H559.56c.51 6.95 2.529 12.086 6.054 15.405 3.526 3.322 9.273 4.982 17.244 4.982 4.802 0 9.12-.69 12.953-2.07 3.831-1.379 6.768-2.782 8.814-4.215l7.357 13.49zm-32.19-58.553c-6.337 0-11.036 1.712-14.101 5.135-3.066 3.424-4.855 7.793-5.365 13.105h34.642c.407-5.619-.614-10.064-3.066-13.335-2.452-3.27-6.49-4.905-12.11-4.905zm106.377 34.794h-30.502v31.117h-21.46v-80.473h21.46v29.89h30.502v-29.89h21.46v80.473h-21.46v-31.117zm96.873-5.211l.919-13.642-9.656 13.488-31.73 36.482h-12.876v-80.473h21.46v37.86l-.767 11.037h1.84a206.132 206.132 0 0 0 3.756-5.518 208.36 208.36 0 0 1 3.754-5.519l31.883-37.86H804.5v80.473h-21.458v-36.328zm112.354 28.97c-3.476 2.66-8.2 4.932-14.179 6.821s-12.392 2.836-19.237 2.836c-13.795 0-23.912-3.78-30.35-11.343-6.437-7.561-9.656-17.934-9.656-31.116 0-13.999 3.625-24.602 10.883-31.806 7.254-7.204 17.474-10.806 30.656-10.806 4.292 0 8.532.536 12.723 1.609 4.188 1.073 7.918 2.862 11.19 5.365 3.268 2.505 5.9 5.877 7.893 10.116 1.993 4.242 2.989 9.48 2.989 15.712 0 2.146-.129 4.498-.383 7.05a68.162 68.162 0 0 1-1.303 7.971h-53.648c.51 6.95 2.529 12.086 6.054 15.405 3.526 3.322 9.273 4.982 17.244 4.982 4.802 0 9.12-.69 12.953-2.07 3.831-1.379 6.768-2.782 8.814-4.215l7.357 13.49zm-32.19-58.553c-6.337 0-11.036 1.712-14.101 5.135-3.066 3.424-4.855 7.793-5.365 13.105h34.641c.408-5.619-.613-10.064-3.065-13.335-2.452-3.27-6.49-4.905-12.11-4.905zm50.429 55.488c0-3.78 1.227-6.745 3.68-8.89 2.451-2.147 5.67-3.22 9.656-3.22 4.086 0 7.358 1.073 9.81 3.22 2.452 2.145 3.679 5.11 3.679 8.89 0 3.578-1.227 6.49-3.679 8.737-2.452 2.246-5.724 3.372-9.81 3.372-3.985 0-7.205-1.126-9.657-3.372-2.452-2.247-3.679-5.16-3.679-8.737z"/><path class="st0" d="M358.298 412.786l.384-4.272h-.24l-2.448 4.32-13.776 18.48h-5.28v-33.6h7.104v18.096l-.48 4.464h.288l2.592-4.464 13.632-18.096h5.328v33.6h-7.104v-18.528zm29.951 8.784h-9.552v9.744h-6.72v-25.2h6.72v9.36h9.552v-9.36h6.72v25.2h-6.72v-9.744zm33.215-9.504h-7.824v19.248h-7.008v-19.248h-7.824v-5.953h22.656v5.953zm24.96 16.944c-1.088.832-2.567 1.544-4.44 2.136s-3.88.888-6.024.888c-4.32 0-7.488-1.184-9.503-3.552-2.016-2.368-3.025-5.617-3.025-9.745 0-4.383 1.136-7.703 3.408-9.96 2.272-2.255 5.473-3.383 9.6-3.383a16 16 0 0 1 3.984.504 9.633 9.633 0 0 1 3.504 1.68c1.025.784 1.849 1.84 2.473 3.168.624 1.328.935 2.968.935 4.92 0 .672-.04 1.408-.12 2.208-.08.8-.216 1.632-.408 2.496h-16.8c.16 2.176.792 3.784 1.897 4.824 1.103 1.04 2.903 1.56 5.4 1.56 1.503 0 2.856-.216 4.056-.648 1.2-.432 2.119-.872 2.76-1.32l2.303 4.223zm-10.08-18.336c-1.984 0-3.456.536-4.416 1.607-.96 1.073-1.52 2.441-1.68 4.104h10.848c.128-1.759-.191-3.15-.96-4.175-.767-1.024-2.032-1.536-3.792-1.536zm17.04-4.561h4.8l.816 3.12h.577c.99-1.279 2.142-2.239 3.455-2.88 1.312-.639 2.848-.96 4.608-.96 3.392 0 5.936 1.017 7.632 3.049 1.696 2.032 2.544 5.255 2.544 9.671 0 2.113-.272 4.025-.816 5.737-.544 1.712-1.344 3.184-2.4 4.416-1.056 1.232-2.36 2.176-3.912 2.832-1.553.655-3.336.984-5.352.984-1.088 0-2.032-.105-2.832-.312-.8-.209-1.6-.488-2.4-.84v9.935h-6.72v-34.752zm12.193 4.896c-1.536 0-2.721.345-3.553 1.033-.832.688-1.472 1.752-1.92 3.192v9.792c.544.448 1.152.8 1.824 1.056.672.256 1.52.384 2.544.384 2.176 0 3.792-.68 4.848-2.04 1.056-1.36 1.584-3.528 1.584-6.504 0-2.144-.407-3.832-1.224-5.064-.816-1.232-2.183-1.849-4.103-1.849zm33.983 10.561h-9.553v9.744h-6.72v-25.2h6.72v9.36h9.552v-9.36h6.72v25.2h-6.72v-9.744zm35.182 7.44c-1.088.832-2.567 1.544-4.44 2.136s-3.88.888-6.024.888c-4.32 0-7.488-1.184-9.504-3.552-2.015-2.368-3.024-5.617-3.024-9.745 0-4.383 1.136-7.703 3.408-9.96 2.272-2.255 5.473-3.383 9.6-3.383a16 16 0 0 1 3.984.504 9.633 9.633 0 0 1 3.504 1.68c1.025.784 1.849 1.84 2.473 3.168.624 1.328.935 2.968.935 4.92 0 .672-.04 1.408-.12 2.208-.08.8-.216 1.632-.408 2.496h-16.8c.16 2.176.792 3.784 1.897 4.824 1.103 1.04 2.903 1.56 5.4 1.56 1.503 0 2.856-.216 4.056-.648 1.199-.432 2.119-.872 2.76-1.32l2.303 4.223zm-10.08-18.336c-1.984 0-3.456.536-4.416 1.607-.96 1.073-1.52 2.441-1.68 4.104h10.848c.128-1.759-.191-3.15-.96-4.175-.767-1.024-2.032-1.536-3.792-1.536zm36.624 1.392h-7.824v19.248h-7.008v-19.248h-7.824v-5.953h22.656v5.953zm1.68 2.448h13.103v5.952h-13.103v-5.952zm19.151-6.673c1.44-.64 3.208-1.167 5.304-1.583a33.377 33.377 0 0 1 6.505-.625c1.759 0 3.239.209 4.44.625 1.2.416 2.152 1.016 2.856 1.8.703.784 1.207 1.728 1.511 2.832.304 1.104.456 2.327.456 3.672 0 1.632-.064 3.248-.192 4.848s-.191 3.296-.191 5.088c0 1.216.079 2.4.239 3.551.16 1.153.416 2.257.768 3.313h-5.471l-1.105-3.744h-.576c-.832 1.12-1.889 2.08-3.168 2.88-1.28.8-2.928 1.2-4.943 1.2-1.217 0-2.328-.177-3.337-.528-1.008-.352-1.871-.856-2.592-1.512a6.937 6.937 0 0 1-1.68-2.328c-.4-.896-.6-1.872-.6-2.928 0-2.848.952-5 2.856-6.457 1.904-1.455 4.792-2.183 8.664-2.183.896 0 1.792.072 2.689.216.895.144 1.52.248 1.87.312.098-.672.145-1.248.145-1.728 0-1.216-.304-2.112-.912-2.688-.608-.576-1.744-.865-3.408-.865a18.23 18.23 0 0 0-4.487.553c-1.457.368-2.745.824-3.864 1.368l-1.777-5.089zm8.784 18.48c1.504 0 2.704-.351 3.6-1.055.895-.704 1.552-1.44 1.969-2.208v-2.88a4.492 4.492 0 0 0-.744-.192 41.523 41.523 0 0 0-1.105-.192 15.463 15.463 0 0 0-2.28-.192c-1.728 0-3.008.312-3.84.936s-1.248 1.4-1.248 2.327c0 1.153.328 2.017.984 2.593.656.576 1.544.863 2.664.863zm36.818-14.255h-10.465v19.248h-7.104v-25.2h17.569v5.952zm24.575 16.944c-1.088.832-2.567 1.544-4.44 2.136s-3.88.888-6.024.888c-4.32 0-7.488-1.184-9.504-3.552-2.015-2.368-3.024-5.617-3.024-9.745 0-4.383 1.136-7.703 3.408-9.96 2.271-2.255 5.473-3.383 9.6-3.383a16 16 0 0 1 3.984.504 9.633 9.633 0 0 1 3.504 1.68c1.024.784 1.848 1.84 2.473 3.168.624 1.328.935 2.968.935 4.92 0 .672-.04 1.408-.12 2.208-.08.8-.216 1.632-.408 2.496h-16.8c.16 2.176.792 3.784 1.896 4.824 1.104 1.04 2.904 1.56 5.4 1.56 1.504 0 2.856-.216 4.056-.648 1.2-.432 2.12-.872 2.76-1.32l2.304 4.223zm-10.08-18.336c-1.985 0-3.456.536-4.416 1.607-.96 1.073-1.52 2.441-1.68 4.104h10.848c.128-1.759-.192-3.15-.96-4.175-.768-1.024-2.032-1.536-3.792-1.536zm33.311 10.896h-9.551v9.744h-6.72v-25.2h6.72v9.36h9.551v-9.36h6.721v25.2h-6.72v-9.744zm32.104-9.48h-7.825v19.248h-7.007V412.09h-7.825v-5.953h22.657v5.953zm21.392 17.688c-1.088.736-2.393 1.295-3.912 1.68-1.52.383-3.096.576-4.728.576-2.176 0-4.007-.32-5.496-.96-1.488-.64-2.705-1.552-3.648-2.736-.945-1.184-1.624-2.584-2.04-4.2-.416-1.616-.624-3.416-.624-5.4 0-4.192 1.032-7.464 3.096-9.816 2.064-2.352 5.064-3.528 9-3.528 1.92 0 3.496.152 4.728.456 1.231.304 2.328.696 3.288 1.176l-1.632 5.376a13.923 13.923 0 0 0-2.471-.792c-.817-.176-1.769-.264-2.857-.264-2.016 0-3.56.584-4.632 1.752-1.072 1.168-1.608 3.048-1.608 5.64 0 1.024.128 1.976.384 2.855.256.881.656 1.657 1.2 2.329s1.231 1.2 2.064 1.584c.832.384 1.808.576 2.928.576 1.344 0 2.407-.12 3.192-.36.784-.24 1.528-.568 2.232-.985l1.536 5.04zm24.192-17.712h-7.824v19.248h-7.008v-19.248h-7.824v-5.953h22.656v5.953zm3.84-5.953a252.65 252.65 0 0 1 4.609-.287c1.758-.096 3.695-.144 5.807-.144 3.968 0 6.783.528 8.448 1.584 1.664 1.055 2.497 2.624 2.497 4.703 0 1.185-.37 2.321-1.105 3.409-.736 1.088-1.889 1.904-3.456 2.448v.384c1.984.416 3.433 1.128 4.344 2.136.912 1.008 1.368 2.312 1.368 3.912 0 2.496-1.056 4.368-3.168 5.616-2.111 1.248-5.472 1.872-10.08 1.872-1.504 0-3.096-.04-4.775-.12a92.292 92.292 0 0 1-4.489-.312v-25.2zm10.656 10.272c1.28 0 2.32-.247 3.12-.743.8-.496 1.2-1.144 1.2-1.945 0-.863-.344-1.535-1.031-2.015-.689-.48-1.93-.72-3.721-.72-.64 0-1.168.016-1.584.047-.416.033-.8.065-1.151.097-.13 0-.289.008-.481.024a5.37 5.37 0 0 1-.432.024v5.231h4.08zm-4.08 9.792c.64.129 1.192.209 1.657.24.463.033 1.014.049 1.655.049 2.176 0 3.688-.264 4.536-.792.848-.528 1.273-1.288 1.273-2.28 0-.896-.369-1.624-1.105-2.184s-2.08-.84-4.032-.84h-3.984v5.807zm19.681-7.44c0-4.159 1.104-7.423 3.312-9.792 2.208-2.367 5.359-3.551 9.456-3.551 2.143 0 4.015.336 5.616 1.008 1.6.671 2.928 1.607 3.983 2.808 1.057 1.2 1.849 2.608 2.376 4.224.529 1.616.792 3.384.792 5.303 0 2.049-.288 3.897-.863 5.544-.576 1.65-1.41 3.049-2.496 4.2-1.089 1.152-2.425 2.033-4.009 2.64s-3.384.913-5.4.913c-2.176 0-4.064-.337-5.663-1.008-1.601-.672-2.928-1.608-3.985-2.809-1.055-1.2-1.84-2.607-2.351-4.223-.513-1.616-.769-3.368-.769-5.257zm6.911 0c0 1.057.112 2.049.336 2.977.224.928.568 1.736 1.032 2.424a5.246 5.246 0 0 0 1.8 1.656c.736.416 1.632.624 2.689.624 3.903 0 5.855-2.56 5.855-7.68 0-1.12-.103-2.152-.311-3.096-.21-.944-.545-1.76-1.008-2.448a4.804 4.804 0 0 0-1.824-1.608c-.752-.384-1.657-.577-2.712-.577-1.825 0-3.257.609-4.296 1.825-1.041 1.216-1.56 3.184-1.56 5.903z"/></g><path class="st1" d="M502.667 261.029h18.42v-15.557c0-28.243-22.895-51.138-51.138-51.138-3.636 0-7.18.385-10.602 1.107-3.78-36.438-34.579-64.85-72.017-64.85-16.18 0-31.12 5.31-43.175 14.279-13.59-47.325-57.194-81.954-108.889-81.954-62.562 0-113.279 50.717-113.279 113.28 0 12.738 2.104 24.984 5.98 36.412-38.924 3.699-69.375 36.47-69.375 76.363 0 42.372 34.349 76.72 76.72 76.72h56.438v-20.666h-56.437c-30.958 0-56.055-25.096-56.055-56.054s24.83-56.221 57.33-58.221c1.812-.112 10.5-1.167 19.291.083-5.216-16.529-13.225-34.324-13.225-54.637 0-51.149 41.464-92.613 92.612-92.613s92.401 39.477 98.805 93.809c10.017-11.976 31.396-28.308 53.26-28.308 29.776 0 56.257 22.722 56.257 52.499 0 5.583-.834 10.5-1.843 18.01 8.676-5.289 19.218-6.663 28.204-6.663 17.972 0 32.542 14.57 32.542 32.542l.176 15.557z" id="symbol"/></svg>